<?xml version="1.0" encoding="utf-8"?>
<!-- Generator: Adobe Illustrator 24.1.2, SVG Export Plug-In . SVG Version: 6.00 Build 0)  -->
<svg version="1.1" id="Layer_1" xmlns="http://www.w3.org/2000/svg" xmlns:xlink="http://www.w3.org/1999/xlink" x="0px" y="0px"
	 viewBox="0 0 756.7 177" style="enable-background:new 0 0 756.7 177;" xml:space="preserve">
<style type="text/css">
	.st0{fill:#FFFFFF;}
	.st1{fill:#13294B;}
	.st2{fill:#0072CE;}
</style>
<circle class="st0" cx="446.4" cy="77.1" r="37.4"/>
<path class="st1" d="M266,39.6h-59.9V54h6.9l-9.7,32c-0.9,3.3-1.7,6-2.4,8.9c-0.8-3.1-1.4-5.8-2.4-8.9l-9.7-32h6.7V39.6h-35.9V3.4
	h-30.3v14.3h8.8V50c-2.5-7.7-8.6-12.4-18.3-12.4c-14.7,0-24.1,10.8-24.1,38.1c0,9,1,16.3,2.9,22h-6.6L66.8,9H37.5L12.4,97.6h-8v14.9
	h35.9V97.6h-9.1l4.2-15.2h28.8l4.2,15.2h-9.7v14.9h41.1v-11.7c4.2,9.6,11.6,13.7,21.2,13.7c9.9,0,17.2-4.5,20.2-14.4v0.5
	c0.8,8.8,6,13.6,15.7,13.6c3.9,0,8.3-0.8,11.4-1.7V98.1c-0.9,0.2-2.5,0.2-4.5,0.2c-2.8,0-4.2-1.6-4.2-4.9V54h6.5l19,58.5h25.2
	L229.2,54h15.4v44.2h-8.8v14.3h38.9V98.3H266V39.6z M39.5,67.7l6.7-23.5c1.4-6,2.5-10.5,3.6-15.5c1.1,5.2,2.2,9.9,3.6,15.5l6.7,23.5
	H39.5z M127.9,98.3c-6.7,0-10.3-5.6-10.3-22.1c0-16.5,3.6-22.1,10.3-22.1c6.9,0,10.3,5.8,10.3,22.1
	C138.2,91.5,135.4,98.3,127.9,98.3"/>
<path class="st1" d="M336.3,71.8c0-22.4-12.2-34.2-29.6-34.2c-17.2,0-31.8,11.9-31.8,37.5c0,26.2,15.4,39.5,34.8,39.5
	c11.8,0,20.5-4.9,26-12.2l-6.1-10.2c-4.5,3.1-8.8,5-15.5,5c-11.1,0-16-5.2-17.6-15.4h39C335.9,79,336.3,75.5,336.3,71.8 M296.1,69.1
	c0.8-13,4.2-17.1,10.3-17.1c6.1,0,9.7,4.4,9.9,17.1H296.1z"/>
<path class="st1" d="M374.8,67.7l-5.3-1.7c-6.6-2-9.2-3.9-9.2-8c0-4.5,3.9-6,9.2-6c1.9,0,3.9,0.2,6.1,0.3v8.8h16.3V42.6
	c-6.4-2.8-15.2-5-23.4-5c-15.4,0-27.9,6.9-27.9,23c0,11,6,18.2,19.6,22.3l5.8,1.9c6.3,2.2,9.4,3.4,9.4,8.5c0,5.3-3.9,6.9-9.9,6.9
	c-3,0-6.4-0.3-10.2-0.9V89h-16.1v20.5c7.5,3,17.2,4.9,26.3,4.9c18.5,0,29.6-7.5,29.6-23.4C395.2,79,388.6,71.8,374.8,67.7"/>
<path class="st1" d="M255.4,28.3c6,0,10.8-4.9,10.8-10.8s-4.9-10.8-10.8-10.8c-6,0-10.8,4.9-10.8,10.8S249.4,28.3,255.4,28.3"/>
<polygon class="st1" points="623.2,39.6 593,39.6 593,54 601.7,54 601.7,98.3 592.8,98.3 590.1,98.3 584.8,98.3 553.3,55.9 
	582.5,23.9 591.1,23.9 591.1,9 547.5,9 547.5,23.9 558.3,23.9 529.1,57.2 529.1,23.9 537,23.9 537,9 496.5,9 496.5,23.9 505.9,23.9 
	505.9,98.3 496.5,98.3 496.5,112.5 537,112.5 537,98.3 529.1,98.3 529.1,61.7 555.5,98.3 548,98.3 548,112.5 590.1,112.5 
	592.8,112.5 631.8,112.5 631.8,98.3 623.2,98.3 "/>
<path class="st1" d="M693.4,71.8c0-22.4-12.2-34.2-29.6-34.2c-17.2,0-31.8,11.9-31.8,37.5c0,26.2,15.4,39.5,34.8,39.5
	c11.8,0,20.5-4.9,26-12.2l-6.1-10.2c-4.5,3.1-8.8,5-15.5,5c-11.1,0-16-5.2-17.6-15.4h39C693.1,79,693.4,75.5,693.4,71.8 M653.3,69.1
	c0.8-13,4.2-17.1,10.3-17.1c6.1,0,9.7,4.4,9.9,17.1H653.3z"/>
<path class="st1" d="M732,67.7l-5.3-1.7c-6.6-2-9.2-3.9-9.2-8c0-4.5,3.9-6,9.2-6c1.9,0,3.9,0.2,6.1,0.3v8.8h16.3V42.6
	c-6.4-2.8-15.2-5-23.4-5c-15.4,0-27.9,6.9-27.9,23c0,11,6,18.2,19.6,22.3l5.8,1.9c6.3,2.2,9.4,3.4,9.4,8.5c0,5.3-3.9,6.9-9.9,6.9
	c-3,0-6.4-0.3-10.2-0.9V89h-16.2v20.5c7.5,3,17.2,4.9,26.3,4.9c18.5,0,29.6-7.5,29.6-23.4C752.3,79,745.8,71.8,732,67.7"/>
<path class="st1" d="M613.1,28.3c6,0,10.8-4.9,10.8-10.8s-4.9-10.8-10.8-10.8c-6,0-10.8,4.9-10.8,10.8S607.1,28.3,613.1,28.3"/>
<path class="st2" d="M403.5,76.5c0-23.9,19.4-43.4,43.4-43.4c23.9,0,43.4,19.4,43.4,43.4c0,23.9-19.4,43.4-43.4,43.4
	C422.9,119.9,403.5,100.5,403.5,76.5 M435.3,83.8c-3.8,0-5.5-1.8-6-5.2h13.3c0.2-1,0.3-2.1,0.3-3.4c0-7.7-4.2-11.7-10.1-11.7
	c-5.9,0-10.9,4.1-10.9,12.8c0,8.9,5.2,13.5,11.9,13.5c4,0,7-1.7,8.9-4.2l-2.1-3.5C439.1,83.1,437.6,83.8,435.3,83.8 M432.8,68.3
	c2.1,0,3.3,1.5,3.4,5.8h-6.9C429.5,69.7,430.7,68.3,432.8,68.3 M468.8,84.1V71.6c0-5-2.9-8.2-7.6-8.2c-3.2,0-6,1.5-7.1,4.9v-4.2
	h-9.3V69h3v15.1h-3V89h12.6v-4.9h-2.3V73c0-2.4,1.3-3.8,3.3-3.8c1.8,0,3,1.1,3,3.6v11.2V89h10.2v-4.9H468.8z"/>
<g>
	<g>
		<path class="st1" d="M111.9,150.3h3.8l-7.8,22.2h-3.8l-7.7-22.2h3.7l4.6,13.8c0.2,0.7,0.5,1.5,0.8,2.5c0.3,1,0.4,1.8,0.5,2.3
			c0.1-0.8,0.3-1.7,0.6-2.7c0.3-1,0.5-1.8,0.7-2.2L111.9,150.3z"/>
	</g>
	<polygon class="st1" points="126.3,150.3 126.3,172.4 138.9,172.4 138.9,169.3 130,169.3 130,162.4 138.3,162.4 138.3,159.4 
		130,159.4 130,153.3 138.9,153.3 138.9,150.3 	"/>
	<g>
		<path class="st1" d="M155,160.6h2.5c1.7,0,2.9-0.3,3.7-0.9c0.8-0.6,1.1-1.6,1.1-2.8c0-1.3-0.4-2.2-1.2-2.7c-0.8-0.5-2-0.8-3.7-0.8
			H155V160.6z M155,163.6v8.8h-3.6v-22.2h6.3c2.9,0,5,0.5,6.3,1.6c1.4,1.1,2.1,2.7,2.1,4.8c0,2.8-1.4,4.7-4.3,5.9l6.3,9.8h-4.1
			l-5.3-8.8H155z"/>
	</g>
	<polygon class="st1" points="177.4,150.3 177.4,153.4 188.3,153.4 177.1,169.9 177.1,172.4 192.9,172.4 192.9,169.3 181.4,169.3 
		192.6,152.8 192.6,150.3 	"/>
	<polygon class="st1" points="204.6,150.3 204.6,172.4 217.1,172.4 217.1,169.3 208.2,169.3 208.2,162.4 216.6,162.4 216.6,159.4 
		208.2,159.4 208.2,153.3 217.1,153.3 217.1,150.3 	"/>
	<g>
		<path class="st1" d="M246.6,172.4h-4.2l-7-10l-2.1,1.7v8.3h-3.6v-22.2h3.6v10.6c1-1.2,2-2.4,3-3.5l6-7.1h4.1
			c-3.9,4.5-6.6,7.8-8.3,9.7L246.6,172.4z"/>
	</g>
	<polygon class="st1" points="257.3,150.3 257.3,172.4 269.8,172.4 269.8,169.3 260.9,169.3 260.9,162.4 269.2,162.4 269.2,159.4 
		260.9,159.4 260.9,153.3 269.8,153.3 269.8,150.3 	"/>
	<g>
		<path class="st1" d="M286,160.6h2.5c1.7,0,2.9-0.3,3.7-0.9c0.8-0.6,1.1-1.6,1.1-2.8c0-1.3-0.4-2.2-1.2-2.7s-2-0.8-3.7-0.8H286
			V160.6z M286,163.6v8.8h-3.6v-22.2h6.3c2.9,0,5,0.5,6.3,1.6c1.4,1.1,2.1,2.7,2.1,4.8c0,2.8-1.4,4.7-4.3,5.9l6.3,9.8h-4.1l-5.3-8.8
			H286z"/>
	</g>
	<polygon class="st1" points="309.9,150.3 309.9,172.4 322.5,172.4 322.5,169.3 313.6,169.3 313.6,162.4 321.9,162.4 321.9,159.4 
		313.6,159.4 313.6,153.3 322.5,153.3 322.5,150.3 	"/>
	<g>
		<path class="st1" d="M353.5,172.4H349l-10.9-17.6H338l0.1,1c0.1,1.9,0.2,3.6,0.2,5.2v11.5H335v-22.2h4.4l10.9,17.6h0.1
			c0-0.2-0.1-1.1-0.1-2.5s-0.1-2.6-0.1-3.4v-11.6h3.3V172.4z"/>
	</g>
	<rect x="382.9" y="150.3" class="st1" width="3.6" height="22.1"/>
	<g>
		<path class="st1" d="M412.9,166.4c0,2-0.7,3.5-2.1,4.6c-1.4,1.1-3.4,1.7-5.9,1.7c-2.5,0-4.6-0.4-6.2-1.2v-3.4
			c1,0.5,2.1,0.8,3.2,1.1c1.1,0.3,2.2,0.4,3.2,0.4c1.4,0,2.5-0.3,3.2-0.8c0.7-0.5,1-1.3,1-2.2c0-0.8-0.3-1.5-0.9-2.1
			c-0.6-0.6-1.9-1.3-3.9-2c-2-0.8-3.4-1.7-4.3-2.8c-0.8-1-1.2-2.3-1.2-3.8c0-1.8,0.7-3.3,2-4.4c1.3-1.1,3.1-1.6,5.3-1.6
			c2.1,0,4.2,0.5,6.3,1.4l-1.2,3c-2-0.8-3.7-1.2-5.3-1.2c-1.2,0-2.1,0.3-2.7,0.8c-0.6,0.5-0.9,1.2-0.9,2c0,0.6,0.1,1.1,0.4,1.5
			c0.2,0.4,0.6,0.8,1.2,1.2c0.6,0.4,1.6,0.8,3,1.4c1.6,0.7,2.8,1.3,3.6,1.9c0.8,0.6,1.3,1.2,1.7,2
			C412.7,164.5,412.9,165.4,412.9,166.4"/>
	</g>
	<polygon class="st1" points="440.7,150.3 440.7,172.4 453.3,172.4 453.3,169.3 444.4,169.3 444.4,162.4 452.7,162.4 452.7,159.4 
		444.4,159.4 444.4,153.3 453.3,153.3 453.3,150.3 	"/>
	<polygon class="st1" points="465.8,150.3 465.8,172.4 478.4,172.4 478.4,169.3 469.4,169.3 469.4,162.4 477.8,162.4 477.8,159.4 
		469.4,159.4 469.4,153.3 478.4,153.3 478.4,150.3 	"/>
	<g>
		<path class="st1" d="M509.3,172.4h-4.4L494,154.8h-0.1l0.1,1c0.1,1.9,0.2,3.6,0.2,5.2v11.5h-3.3v-22.2h4.4l10.9,17.6h0.1
			c0-0.2-0.1-1.1-0.1-2.5c-0.1-1.5-0.1-2.6-0.1-3.4v-11.6h3.3V172.4z"/>
		<path class="st1" d="M555.7,172.4h-4.2l-7-10l-2.1,1.7v8.3h-3.6v-22.2h3.6v10.6c1-1.2,2-2.4,3-3.5l6-7.1h4.1
			c-3.9,4.5-6.6,7.8-8.3,9.7L555.7,172.4z"/>
	</g>
	<polygon class="st1" points="566.4,150.3 566.4,172.4 578.9,172.4 578.9,169.3 570,169.3 570,162.4 578.3,162.4 578.3,159.4 
		570,159.4 570,153.3 578.9,153.3 578.9,150.3 	"/>
	<g>
		<path class="st1" d="M608.8,150.3v14.3c0,1.6-0.3,3.1-1.1,4.3c-0.7,1.2-1.7,2.2-3,2.8c-1.3,0.7-2.9,1-4.8,1
			c-2.7,0-4.9-0.7-6.4-2.2c-1.5-1.5-2.3-3.5-2.3-6v-14.3h3.6v14c0,1.8,0.4,3.2,1.3,4c0.8,0.9,2.1,1.3,3.9,1.3c3.4,0,5.1-1.8,5.1-5.4
			v-14H608.8z"/>
	</g>
	<polygon class="st1" points="620.6,150.3 620.6,153.4 631.5,153.4 620.3,169.9 620.3,172.4 636.1,172.4 636.1,169.3 624.6,169.3 
		635.8,152.8 635.8,150.3 	"/>
	<polygon class="st1" points="647.8,150.3 647.8,172.4 660.3,172.4 660.3,169.3 651.4,169.3 651.4,162.4 659.8,162.4 659.8,159.4 
		651.4,159.4 651.4,153.3 660.3,153.3 660.3,150.3 	"/>
</g>
</svg>
