<?xml version="1.0" encoding="utf-8"?>
<!-- Generator: Adobe Illustrator 22.1.0, SVG Export Plug-In . SVG Version: 6.00 Build 0)  -->
<svg version="1.1" id="Laag_1" xmlns="http://www.w3.org/2000/svg" xmlns:xlink="http://www.w3.org/1999/xlink" x="0px" y="0px"
	 viewBox="0 0 841.9 595.3" style="enable-background:new 0 0 841.9 595.3;" xml:space="preserve">
<style type="text/css">
	.st0{fill:#002A50;}
	.st1{fill:#419BF5;}
</style>
<g>
	<g>
		<g>
			<g>
				<path class="st0" d="M308.6,280.2h-59.9v14.4h6.9l-9.7,32c-0.9,3.3-1.7,6-2.4,8.9c-0.8-3.1-1.4-5.8-2.4-8.9l-9.7-32h6.7v-14.4
					h-35.9V244H172v14.3h8.8v32.3c-2.5-7.7-8.6-12.4-18.3-12.4c-14.7,0-24.1,10.8-24.1,38.1c0,9,1,16.3,2.9,22h-6.6l-25.2-88.6H80.1
					L55,338.2h-8v14.9h35.9v-14.9h-9.1L78,323h28.8l4.2,15.2h-9.7v14.9h41.1v-11.7c4.2,9.6,11.6,13.7,21.2,13.7
					c9.9,0,17.2-4.5,20.2-14.4v0.5c0.8,8.8,6,13.6,15.7,13.6c3.9,0,8.3-0.8,11.4-1.7v-14.4c-0.9,0.2-2.5,0.2-4.5,0.2
					c-2.8,0-4.2-1.6-4.2-4.9v-39.4h6.5l19,58.5h25.2l18.8-58.5h15.4v44.2h-8.8v14.3h38.9v-14.3h-8.6V280.2z M82.1,308.3l6.7-23.5
					c1.4-6,2.5-10.5,3.6-15.5c1.1,5.2,2.2,9.9,3.6,15.5l6.7,23.5H82.1z M170.4,338.8c-6.7,0-10.3-5.6-10.3-22.1
					c0-16.5,3.6-22.1,10.3-22.1c6.9,0,10.3,5.8,10.3,22.1C180.8,332.1,178,338.8,170.4,338.8z"/>
			</g>
		</g>
		<g>
			<g>
				<path class="st0" d="M378.8,312.4c0-22.4-12.2-34.2-29.6-34.2c-17.2,0-31.8,11.9-31.8,37.5c0,26.2,15.4,39.5,34.8,39.5
					c11.8,0,20.5-4.9,26-12.2l-6.1-10.2c-4.5,3.1-8.8,5-15.5,5c-11.1,0-16-5.2-17.6-15.4h39C378.5,319.6,378.8,316.1,378.8,312.4z
					 M338.7,309.7c0.8-13,4.2-17.1,10.3-17.1c6.1,0,9.7,4.4,9.9,17.1H338.7z"/>
			</g>
		</g>
		<g>
			<path class="st0" d="M417.3,308.3l-5.3-1.7c-6.6-2-9.3-3.9-9.3-8c0-4.5,3.9-6,9.3-6c1.9,0,3.9,0.2,6.1,0.3v8.8h16.3v-18.5
				c-6.4-2.8-15.2-5-23.4-5c-15.4,0-27.9,6.9-27.9,23c0,11,6,18.2,19.6,22.3l5.8,1.9c6.3,2.2,9.4,3.4,9.4,8.5c0,5.3-3.9,6.9-9.9,6.9
				c-3,0-6.4-0.3-10.2-0.9v-10.2h-16.1v20.5c7.5,3,17.2,4.9,26.3,4.9c18.5,0,29.6-7.5,29.6-23.4
				C437.7,319.6,431.1,312.4,417.3,308.3z"/>
		</g>
		<g>
			<path class="st0" d="M298,268.9c6,0,10.8-4.9,10.8-10.8c0-6-4.9-10.8-10.8-10.8c-6,0-10.8,4.9-10.8,10.8
				C287.1,264.1,292,268.9,298,268.9z"/>
		</g>
	</g>
</g>
<g>
	<g>
		<g>
			<polygon class="st0" points="665.8,280.2 635.5,280.2 635.5,294.6 644.3,294.6 644.3,338.8 635.4,338.8 632.7,338.8 627.4,338.8 
				595.9,296.5 625,264.5 633.6,264.5 633.6,249.6 590.1,249.6 590.1,264.5 600.9,264.5 571.7,297.8 571.7,264.5 579.5,264.5 
				579.5,249.6 539.1,249.6 539.1,264.5 548.5,264.5 548.5,338.8 539.1,338.8 539.1,353.1 579.5,353.1 579.5,338.8 571.7,338.8 
				571.7,302.3 598.1,338.8 590.5,338.8 590.5,353.1 632.7,353.1 635.4,353.1 674.4,353.1 674.4,338.8 665.8,338.8 			"/>
		</g>
		<g>
			<g>
				<path class="st0" d="M736,312.4c0-22.4-12.2-34.2-29.6-34.2c-17.2,0-31.8,11.9-31.8,37.5c0,26.2,15.4,39.5,34.8,39.5
					c11.8,0,20.5-4.9,26-12.2l-6.1-10.2c-4.5,3.1-8.8,5-15.5,5c-11.1,0-16-5.2-17.6-15.4h39C735.7,319.6,736,316.1,736,312.4z
					 M695.9,309.7c0.8-13,4.2-17.1,10.3-17.1c6.1,0,9.7,4.4,9.9,17.1H695.9z"/>
			</g>
		</g>
		<g>
			<path class="st0" d="M774.5,308.3l-5.3-1.7c-6.6-2-9.3-3.9-9.3-8c0-4.5,3.9-6,9.3-6c1.9,0,3.9,0.2,6.1,0.3v8.8h16.3v-18.5
				c-6.4-2.8-15.2-5-23.4-5c-15.4,0-27.9,6.9-27.9,23c0,11,6,18.2,19.6,22.3l5.8,1.9c6.3,2.2,9.4,3.4,9.4,8.5c0,5.3-3.9,6.9-9.9,6.9
				c-3,0-6.4-0.3-10.2-0.9v-10.2h-16.2v20.5c7.5,3,17.2,4.9,26.3,4.9c18.5,0,29.6-7.5,29.6-23.4
				C794.9,319.6,788.3,312.4,774.5,308.3z"/>
		</g>
		<g>
			<path class="st0" d="M655.7,268.9c6,0,10.8-4.9,10.8-10.8c0-6-4.9-10.8-10.8-10.8c-6,0-10.8,4.9-10.8,10.8
				C644.8,264.1,649.7,268.9,655.7,268.9z"/>
		</g>
	</g>
</g>
<path class="st1" d="M446.1,317.1c0-23.9,19.4-43.4,43.4-43.4c23.9,0,43.4,19.4,43.4,43.4c0,23.9-19.4,43.4-43.4,43.4
	C465.5,360.5,446.1,341.1,446.1,317.1z M477.9,324.3c-3.8,0-5.5-1.8-6-5.2h13.3c0.2-1,0.3-2.1,0.3-3.4c0-7.7-4.2-11.7-10.1-11.7
	c-5.9,0-10.9,4.1-10.9,12.8c0,8.9,5.2,13.5,11.9,13.5c4,0,7-1.7,8.9-4.2l-2.1-3.5C481.6,323.7,480.2,324.3,477.9,324.3z
	 M475.3,308.9c2.1,0,3.3,1.5,3.4,5.8h-6.9C472.1,310.3,473.2,308.9,475.3,308.9z M511.4,324.7v-12.5c0-5-2.9-8.2-7.6-8.2
	c-3.2,0-6,1.5-7.1,4.9v-4.2h-9.3v4.9h3v15.1h-3v4.9h12.6v-4.9h-2.3v-11.1c0-2.4,1.3-3.8,3.3-3.8c1.8,0,3,1.1,3,3.6v11.2v4.9h10.2
	v-4.9H511.4z"/>
</svg>
