<?xml version="1.0" encoding="utf-8"?>
<!-- Generator: Adobe Illustrator 24.1.0, SVG Export Plug-In . SVG Version: 6.00 Build 0)  -->
<svg version="1.1" id="Layer_1" xmlns="http://www.w3.org/2000/svg" xmlns:xlink="http://www.w3.org/1999/xlink" x="0px" y="0px"
	 viewBox="0 0 170.1 208.5" style="enable-background:new 0 0 170.1 208.5;" xml:space="preserve">
<style type="text/css">
	.st0{fill:#EE3026;}
	.st1{fill:#FFFFFF;}
	.st2{fill:#2D2D2C;}
</style>
<g>
	<path class="st0" d="M0,188.2c0-56,0-112,0-168c0.1-0.6,0.2-1.2,0.3-1.8C1.5,9.8,8.2,2.5,16.7,0.6C17.9,0.3,19,0.2,20.2,0
		c32.6,0,65.2,0,97.9,0c0.2,0,0.4,0.1,0.6,0.1c5.6,0.4,10.3,2.6,14.3,6.5c10.2,10,20.4,20,30.6,30c2.2,2.2,4,4.7,5,7.6
		c0.8,2.3,0.9,4.8,0.9,7.2c0,44.9,0,89.8,0,134.7c0,1.2,0,2.4-0.2,3.6c-1.1,8.5-7.4,15.7-15.7,17.9c-1.1,0.3-2.2,0.5-3.4,0.7
		c-43.7,0-87.4,0-131.1,0c-0.2-0.1-0.3-0.1-0.5-0.1c-8.8-1.1-16.3-7.9-18.2-16.5C0.3,190.6,0.2,189.4,0,188.2z M7,104.2
		c0,27.5,0,55.1,0,82.6c0,4.1,1.4,7.7,4.4,10.6c3,2.9,6.6,4.1,10.7,4.1c41.8,0,83.7,0,125.5,0c0.2,0,0.3,0,0.5,0
		c4.6-0.1,8.5-1.9,11.4-5.5c2.2-2.8,3.1-6,3.1-9.6c0-45.2,0-90.4,0-135.6c0-3.5-1.1-6.4-3.5-8.9c-0.2-0.3-0.5-0.5-0.8-0.7
		c-9.9-9.8-19.9-19.5-29.8-29.3c-3.4-3.3-7.4-4.9-12-4.9c-31.7,0-63.4,0-95.1,0c-1.4,0-2.9,0.3-4.2,0.7C11,9.6,7.1,15.1,7,21.6
		C7,49.2,7,76.7,7,104.2z"/>
	<path class="st1" d="M7,104.2c0-27.5,0-55.1,0-82.6c0-6.5,4-12,10.1-13.9c1.4-0.4,2.8-0.7,4.2-0.7c31.7,0,63.4,0,95.1,0
		c4.7,0,8.7,1.6,12,4.9c9.9,9.8,19.9,19.5,29.8,29.3c0.3,0.2,0.5,0.5,0.8,0.7c2.4,2.5,3.5,5.4,3.5,8.9c0,45.2,0,90.4,0,135.6
		c0,3.5-0.9,6.8-3.1,9.6c-2.9,3.7-6.8,5.4-11.4,5.5c-0.2,0-0.3,0-0.5,0c-41.8,0-83.7,0-125.5,0c-4.1,0-7.7-1.2-10.7-4.1
		c-3-2.9-4.4-6.5-4.4-10.6C7,159.3,7,131.8,7,104.2z M88.2,52.6c0-1.6-0.1-3.8-0.7-6c-0.8-2.7-2.2-4.8-4.9-5.9
		c-3.2-1.3-6.5,0.1-7.6,3.2c-0.4,1.1-0.5,2.2-0.6,3.3c-0.3,4,0.2,7.9,0.9,11.8c0.7,3.7,2.1,7.2,3.3,10.7c0.1,0.4,0.1,0.9,0,1.3
		c-3.6,10-7.7,19.8-12.3,29.4c-0.2,0.4-0.5,0.7-0.9,0.9c-2.6,1.3-5.2,2.6-7.8,3.9c-4.2,2.1-8.3,4.3-11.9,7.3
		c-1.8,1.5-3.5,3.1-4.5,5.3c-0.5,1-0.8,2.1-0.6,3.2c0.5,2.8,2.9,4.8,6,4.9c3.7,0.1,6.8-1.3,9.6-3.5c3.7-2.9,6.7-6.6,9.4-10.4
		c2.3-3.3,4.5-6.7,6.7-10.1c0.3-0.5,0.7-0.7,1.2-0.9c7.3-2.6,14.7-4.5,22.3-6c0.4-0.1,0.8,0,1.1,0.3c2.3,2.2,4.9,4.1,7.7,5.7
		c5.1,2.8,10.5,4.6,16.4,4.3c1.8-0.1,3.6-0.5,5.1-1.4c1.3-0.7,2.3-1.7,2.5-3.2c0.5-2.6-0.3-4.8-2.3-6.5c-1.3-1.1-2.9-1.8-4.6-2.3
		c-4.5-1.2-9.1-1.2-13.6-0.8c-3.5,0.3-7,0.8-10.5,1.2c-0.4,0.1-0.7-0.1-0.9-0.4c-0.7-0.9-1.5-1.8-2.2-2.8
		c-3.7-4.6-7.4-9.2-10.3-14.4c-0.2-0.3-0.2-0.8-0.2-1.2c0.5-2.1,1.1-4.3,1.6-6.4C87.1,62.6,88,58,88.2,52.6z M74.4,178.6
		c0.1,0,0.2,0.1,0.3,0.1c3.2,0,6.4,0,9.5-0.1c4.5-0.2,7.8-2.5,9.8-6.5c2.5-5.2,2.8-10.6,1.2-16.1c-1.6-5.3-5.1-8.4-10.7-8.9
		c-3.3-0.3-6.6-0.1-9.9-0.2c0,0-0.1,0-0.1,0.1C74.4,157.4,74.4,168,74.4,178.6z M55.9,166.2c0.4,0,0.7,0,1,0c2-0.1,3.9-0.1,5.8-0.3
		c3-0.3,5.3-1.8,6.5-4.6c1.4-3.1,1.4-6.4,0-9.5c-1-2.3-2.7-4-5.3-4.5c-1.1-0.2-2.2-0.4-3.4-0.5c-3.2-0.1-6.3-0.1-9.5-0.1
		c-0.2,0-0.4,0-0.5,0.1c0,10.6,0,21.2,0,31.8c1.8,0,3.5,0,5.2,0C55.9,174.4,55.9,170.4,55.9,166.2z M106.5,164.7c0.4,0,0.8,0,1.1,0
		c2.8,0,5.5,0,8.3,0c0.2,0,0.6-0.2,0.6-0.3c0-1.3,0-2.5,0-3.9c-3.4,0-6.6,0-9.9,0c0-0.3,0-0.5,0-0.7c0-2.7,0-5.4,0-8.1
		c0-0.6,0.2-0.8,0.8-0.7c3.6,0,7.2,0,10.8,0c0.3,0,0.5,0,0.9,0c0-1.4,0-2.8,0-4.1c-5.9,0-11.7,0-17.6,0c0,10.6,0,21.2,0,31.8
		c1.7,0,3.4,0,5.2,0C106.5,174,106.5,169.4,106.5,164.7z"/>
	<path class="st0" d="M88.2,52.6c-0.2,5.4-1.1,10-2.3,14.5c-0.6,2.1-1.1,4.3-1.6,6.4c-0.1,0.4,0,0.8,0.2,1.2
		c2.9,5.2,6.6,9.8,10.3,14.4c0.7,0.9,1.5,1.8,2.2,2.8c0.3,0.3,0.5,0.5,0.9,0.4c3.5-0.4,7-0.9,10.5-1.2c4.6-0.4,9.1-0.4,13.6,0.8
		c1.7,0.4,3.3,1.1,4.6,2.3c2,1.7,2.8,3.9,2.3,6.5c-0.3,1.5-1.3,2.5-2.5,3.2c-1.6,0.9-3.3,1.3-5.1,1.4c-5.9,0.3-11.3-1.5-16.4-4.3
		c-2.8-1.5-5.4-3.5-7.7-5.7c-0.4-0.3-0.7-0.4-1.1-0.3c-7.6,1.5-15,3.4-22.3,6c-0.5,0.2-0.9,0.4-1.2,0.9c-2.2,3.4-4.4,6.8-6.7,10.1
		c-2.7,3.8-5.7,7.5-9.4,10.4c-2.8,2.2-6,3.6-9.6,3.5c-3.1-0.1-5.5-2.1-6-4.9c-0.2-1.1,0.1-2.2,0.6-3.2c1-2.2,2.7-3.8,4.5-5.3
		c3.6-3,7.7-5.2,11.9-7.3c2.6-1.3,5.2-2.6,7.8-3.9c0.4-0.2,0.7-0.5,0.9-0.9c4.5-9.6,8.6-19.4,12.3-29.4c0.1-0.4,0.1-0.9,0-1.3
		c-1.2-3.5-2.6-7-3.3-10.7c-0.7-3.9-1.2-7.8-0.9-11.8c0.1-1.1,0.3-2.3,0.6-3.3c1.1-3.2,4.4-4.5,7.6-3.2c2.7,1.1,4.1,3.2,4.9,5.9
		C88.1,48.8,88.2,51.1,88.2,52.6z M82.8,76.6c-2.4,7.4-5.4,14.5-8.5,21.7c6.8-2.4,13.6-4.1,20.8-5.4C90.6,87.7,86.5,82.5,82.8,76.6z
		 M98.9,94.2c0.4,0.3,0.6,0.4,0.8,0.6c4.1,3,8.7,5.1,13.6,6.7c1.7,0.6,3.4,1,5.2,1c2.1-0.1,3.9-1.6,4.3-3.6c0.3-1.8-0.7-3.5-2.5-4.5
		c-2.2-1.1-4.5-1.3-6.9-1.3c-3.5-0.1-7,0.3-10.6,0.7C101.6,93.8,100.3,94,98.9,94.2z M63.6,104.9c0,0-0.1-0.1-0.1-0.1
		c-0.2,0.1-0.3,0.1-0.5,0.2c-2.1,1.1-4.3,2.1-6.4,3.2c-3.2,1.6-6.4,3.4-9.3,5.6c-1.5,1.2-3,2.5-4,4.2c-0.5,0.8-0.9,1.7-0.6,2.8
		c0.4,1.9,2.3,2.9,4.3,2.2c1.7-0.6,3.2-1.4,4.5-2.6c3.6-3.3,6.6-7.2,9.4-11.2C61.7,107.8,62.6,106.3,63.6,104.9z M79.9,66.9
		c0.1-0.3,0.2-0.4,0.2-0.5c1.7-5.5,3.1-11.1,3.4-16.9c0.1-1.4-0.1-2.8-0.4-4.2c-0.3-1.5-1.4-2.3-2.9-2.5c-1.4-0.2-2.2,0.8-2.9,1.9
		c-0.2,0.3-0.3,0.7-0.4,1c-0.5,1.7-0.7,3.4-0.6,5.1c0.3,5.4,1.5,10.6,3.3,15.6C79.7,66.5,79.8,66.6,79.9,66.9z"/>
	<path class="st2" d="M74.4,178.6c0-10.6,0-21.2,0-31.7c0.1,0,0.1-0.1,0.1-0.1c3.3,0,6.6-0.1,9.9,0.2c5.6,0.5,9.1,3.6,10.7,8.9
		c1.6,5.5,1.4,10.9-1.2,16.1c-2,4-5.3,6.3-9.8,6.5c-3.2,0.2-6.4,0.1-9.5,0.1C74.6,178.6,74.5,178.6,74.4,178.6z M79.6,174.4
		c0.9,0,1.8,0,2.6,0c3.6-0.1,6-1.8,7.2-5.1c1.5-4.2,1.5-8.5,0.2-12.7c-1.5-4.8-5.2-6.1-10.1-5.5C79.6,158.8,79.6,166.6,79.6,174.4z"
		/>
	<path class="st2" d="M55.9,166.2c0,4.2,0,8.3,0,12.4c-1.7,0-3.5,0-5.2,0c0-10.6,0-21.1,0-31.8c0.2,0,0.3-0.1,0.5-0.1
		c3.2,0,6.3,0,9.5,0.1c1.1,0,2.2,0.2,3.4,0.5c2.6,0.5,4.2,2.2,5.3,4.5c1.4,3.2,1.4,6.4,0,9.5c-1.3,2.8-3.5,4.3-6.5,4.6
		c-1.9,0.2-3.9,0.2-5.8,0.3C56.6,166.2,56.3,166.2,55.9,166.2z M55.9,161.9c1.3,0,2.5,0,3.7,0c0.6,0,1.2-0.1,1.8-0.3
		c1.6-0.4,2.6-1.3,3.1-2.9c0.4-1.5,0.5-3,0-4.5c-0.6-2-1.8-3.3-4-3.3c-1.3,0-2.6,0-3.9-0.1c-0.5,0-0.7,0.2-0.7,0.7
		c0,2.8,0,5.7,0,8.5C55.9,160.6,55.9,161.2,55.9,161.9z"/>
	<path class="st2" d="M106.5,164.7c0,4.7,0,9.3,0,13.9c-1.7,0-3.4,0-5.2,0c0-10.6,0-21.2,0-31.8c5.9,0,11.7,0,17.6,0
		c0,1.4,0,2.7,0,4.1c-0.3,0-0.6,0-0.9,0c-3.6,0-7.2,0-10.8,0c-0.6,0-0.8,0.2-0.8,0.7c0,2.7,0,5.4,0,8.1c0,0.2,0,0.4,0,0.7
		c3.3,0,6.6,0,9.9,0c0,1.4,0,2.6,0,3.9c0,0.1-0.4,0.3-0.6,0.3c-2.8,0-5.5,0-8.3,0C107.2,164.7,106.9,164.7,106.5,164.7z"/>
	<path class="st1" d="M82.8,76.6c3.6,5.8,7.8,11.1,12.3,16.2c-7.2,1.3-14,3-20.8,5.4C77.5,91.1,80.4,84.1,82.8,76.6z"/>
	<path class="st1" d="M98.9,94.2c1.4-0.2,2.7-0.4,3.9-0.5c3.5-0.4,7-0.9,10.6-0.7c2.4,0.1,4.7,0.2,6.9,1.3c1.8,1,2.8,2.7,2.5,4.5
		c-0.4,2-2.2,3.5-4.3,3.6c-1.8,0.1-3.5-0.4-5.2-1c-4.8-1.6-9.4-3.6-13.6-6.7C99.5,94.6,99.3,94.5,98.9,94.2z"/>
	<path class="st1" d="M63.6,104.9c-0.9,1.4-1.8,2.9-2.8,4.3c-2.8,4-5.7,7.9-9.4,11.2c-1.3,1.2-2.8,2-4.5,2.6c-2,0.7-3.8-0.3-4.3-2.2
		c-0.2-1,0.1-1.9,0.6-2.8c1-1.7,2.5-3,4-4.2c2.9-2.2,6-4,9.3-5.6c2.1-1.1,4.3-2.2,6.4-3.2c0.2-0.1,0.3-0.1,0.5-0.2
		C63.5,104.8,63.5,104.9,63.6,104.9z"/>
	<path class="st1" d="M79.9,66.9c-0.1-0.2-0.2-0.3-0.2-0.5c-1.8-5.1-3-10.3-3.3-15.6c-0.1-1.7,0-3.4,0.6-5.1c0.1-0.4,0.3-0.7,0.4-1
		c0.6-1.1,1.5-2.1,2.9-1.9c1.4,0.2,2.6,1,2.9,2.5c0.3,1.4,0.4,2.8,0.4,4.2c-0.3,5.8-1.7,11.4-3.4,16.9C80.1,66.5,80,66.6,79.9,66.9z
		"/>
	<path class="st1" d="M79.6,174.4c0-7.8,0-15.6,0-23.4c4.9-0.6,8.6,0.8,10.1,5.5c1.3,4.2,1.3,8.5-0.2,12.7c-1.2,3.4-3.6,5.1-7.2,5.1
		C81.4,174.4,80.6,174.4,79.6,174.4z"/>
	<path class="st1" d="M55.9,161.9c0-0.7,0-1.4,0-2c0-2.8,0-5.7,0-8.5c0-0.5,0.1-0.7,0.7-0.7c1.3,0.1,2.6,0.1,3.9,0.1
		c2.2,0.1,3.4,1.3,4,3.3c0.5,1.5,0.4,3,0,4.5c-0.4,1.6-1.5,2.5-3.1,2.9c-0.6,0.1-1.2,0.2-1.8,0.3C58.4,162,57.2,161.9,55.9,161.9z"
		/>
</g>
</svg>
